<?xml version="1.0" encoding="UTF-8" standalone="no"?><!DOCTYPE svg PUBLIC "-//W3C//DTD SVG 1.1//EN" "http://www.w3.org/Graphics/SVG/1.1/DTD/svg11.dtd"><svg width="100%" height="100%" viewBox="0 0 400 87" version="1.1" xmlns="http://www.w3.org/2000/svg" xmlns:xlink="http://www.w3.org/1999/xlink" xml:space="preserve" xmlns:serif="http://www.serif.com/" style="fill-rule:evenodd;clip-rule:evenodd;stroke-miterlimit:10;"><rect id="Logo-geomaap-web-2" serif:id="Logo geomaap web 2" x="0" y="0" width="400" height="86.764" style="fill:none;"/><clipPath id="_clip1"><rect x="0" y="0" width="400" height="86.764"/></clipPath><g clip-path="url(#_clip1)"><path d="M39.166,21.594l-25.158,43.577l50.317,-0l-25.159,-43.577l-25.158,43.577l50.317,-0l-25.159,-43.577Z" style="fill:#0891b2;fill-rule:nonzero;stroke:#0891b2;stroke-width:10px;"/><path d="M59.012,30.538l-19.995,34.633l39.991,-0l-19.996,-34.633l-19.995,34.633l39.991,-0l-19.996,-34.633Z" style="fill:#67e8f9;fill-rule:nonzero;stroke:#67e8f9;stroke-width:10px;"/><path d="M174.724,60.097c-3.21,-0 -6.105,-0.698 -8.685,-2.093c-2.58,-1.395 -4.605,-3.33 -6.075,-5.805c-1.47,-2.475 -2.205,-5.242 -2.205,-8.302c-0,-3.06 0.735,-5.828 2.205,-8.303c1.47,-2.475 3.495,-4.41 6.075,-5.805c2.58,-1.395 5.475,-2.092 8.685,-2.092c3.21,-0 6.105,0.697 8.685,2.092c2.58,1.395 4.605,3.323 6.075,5.783c1.47,2.46 2.205,5.235 2.205,8.325c-0,3.09 -0.735,5.865 -2.205,8.325c-1.47,2.46 -3.495,4.387 -6.075,5.782c-2.58,1.395 -5.475,2.093 -8.685,2.093Zm-0,-5.13c2.1,-0 3.99,-0.473 5.67,-1.418c1.68,-0.945 3,-2.265 3.96,-3.96c0.96,-1.695 1.44,-3.592 1.44,-5.692c-0,-2.1 -0.48,-3.998 -1.44,-5.693c-0.96,-1.695 -2.28,-3.015 -3.96,-3.96c-1.68,-0.945 -3.57,-1.417 -5.67,-1.417c-2.1,-0 -3.99,0.472 -5.67,1.417c-1.68,0.945 -3,2.265 -3.96,3.96c-0.96,1.695 -1.44,3.593 -1.44,5.693c-0,2.1 0.48,3.997 1.44,5.692c0.96,1.695 2.28,3.015 3.96,3.96c1.68,0.945 3.57,1.418 5.67,1.418Z" style="fill:#fff;fill-rule:nonzero;"/><path d="M226.834,59.647l-0.045,-20.88l-10.35,17.28l-2.61,-0l-10.35,-17.01l-0,20.61l-5.58,-0l-0,-31.5l4.815,-0l12.51,20.88l12.285,-20.88l4.815,-0l0.045,31.5l-5.535,-0Z" style="fill:#fff;fill-rule:nonzero;"/><path d="M261.304,52.357l-15.75,-0l-3.105,7.29l-6.03,-0l14.175,-31.5l5.76,-0l14.22,31.5l-6.12,-0l-3.15,-7.29Zm-1.935,-4.59l-5.94,-13.77l-5.895,13.77l11.835,-0Z" style="fill:#fff;fill-rule:nonzero;"/><path d="M295.819,52.357l-15.75,-0l-3.105,7.29l-6.03,-0l14.175,-31.5l5.76,-0l14.22,31.5l-6.12,-0l-3.15,-7.29Zm-1.935,-4.59l-5.94,-13.77l-5.895,13.77l11.835,-0Z" style="fill:#fff;fill-rule:nonzero;"/><path d="M322.054,28.147c2.73,-0 5.107,0.45 7.132,1.35c2.025,0.9 3.578,2.19 4.658,3.87c1.08,1.68 1.62,3.675 1.62,5.985c-0,2.28 -0.54,4.267 -1.62,5.962c-1.08,1.695 -2.633,2.993 -4.658,3.893c-2.025,0.9 -4.402,1.35 -7.132,1.35l-7.11,-0l-0,9.09l-5.85,-0l-0,-31.5l12.96,-0Zm-0.27,17.46c2.55,-0 4.485,-0.54 5.805,-1.62c1.32,-1.08 1.98,-2.625 1.98,-4.635c-0,-2.01 -0.66,-3.555 -1.98,-4.635c-1.32,-1.08 -3.255,-1.62 -5.805,-1.62l-6.84,-0l-0,12.51l6.84,-0Z" style="fill:#fff;fill-rule:nonzero;"/><path d="M341.764,59.962c-1.02,-0 -1.89,-0.353 -2.61,-1.058c-0.72,-0.705 -1.08,-1.597 -1.08,-2.677c-0,-1.11 0.352,-2.01 1.057,-2.7c0.705,-0.69 1.583,-1.035 2.633,-1.035c1.05,-0 1.927,0.345 2.632,1.035c0.705,0.69 1.058,1.59 1.058,2.7c-0,1.08 -0.36,1.972 -1.08,2.677c-0.72,0.705 -1.59,1.058 -2.61,1.058Z" style="fill:#fff;fill-rule:nonzero;"/><rect x="351.484" y="28.147" width="5.85" height="31.5" style="fill:#fff;fill-rule:nonzero;"/><path d="M380.554,60.097c-3.21,-0 -6.105,-0.698 -8.685,-2.093c-2.58,-1.395 -4.605,-3.33 -6.075,-5.805c-1.47,-2.475 -2.205,-5.242 -2.205,-8.302c-0,-3.06 0.735,-5.828 2.205,-8.303c1.47,-2.475 3.495,-4.41 6.075,-5.805c2.58,-1.395 5.475,-2.092 8.685,-2.092c3.21,-0 6.105,0.697 8.685,2.092c2.58,1.395 4.605,3.323 6.075,5.783c1.47,2.46 2.205,5.235 2.205,8.325c-0,3.09 -0.735,5.865 -2.205,8.325c-1.47,2.46 -3.495,4.387 -6.075,5.782c-2.58,1.395 -5.475,2.093 -8.685,2.093Zm-0,-5.13c2.1,-0 3.99,-0.473 5.67,-1.418c1.68,-0.945 3,-2.265 3.96,-3.96c0.96,-1.695 1.44,-3.592 1.44,-5.692c-0,-2.1 -0.48,-3.998 -1.44,-5.693c-0.96,-1.695 -2.28,-3.015 -3.96,-3.96c-1.68,-0.945 -3.57,-1.417 -5.67,-1.417c-2.1,-0 -3.99,0.472 -5.67,1.417c-1.68,0.945 -3,2.265 -3.96,3.96c-0.96,1.695 -1.44,3.593 -1.44,5.693c-0,2.1 0.48,3.997 1.44,5.692c0.96,1.695 2.28,3.015 3.96,3.96c1.68,0.945 3.57,1.418 5.67,1.418Z" style="fill:#fff;fill-rule:nonzero;"/><rect x="129.758" y="29.705" width="20.631" height="2.75" style="fill:#fff;stroke:#fff;stroke-width:2.8px;"/><path d="M151.026,55.745l0,2.763l-21.268,-0l0,-16.63l18.734,0l-0,2.691l-15.566,0l0,11.176l18.1,0Z" style="fill:#fff;fill-rule:nonzero;stroke:#fff;stroke-width:2.8px;"/><path d="M117.035,43.537l5.535,-0l0,12.555c-1.62,1.29 -3.51,2.28 -5.67,2.97c-2.16,0.69 -4.38,1.035 -6.66,1.035c-3.21,-0 -6.105,-0.698 -8.685,-2.093c-2.58,-1.395 -4.605,-3.322 -6.075,-5.782c-1.47,-2.46 -2.205,-5.235 -2.205,-8.325c0,-3.09 0.735,-5.865 2.205,-8.325c1.47,-2.46 3.503,-4.388 6.098,-5.783c2.595,-1.395 5.512,-2.092 8.752,-2.092c2.64,-0 5.04,0.435 7.2,1.305c2.16,0.87 3.975,2.145 5.445,3.825l-3.69,3.6c-2.4,-2.4 -5.295,-3.6 -8.685,-3.6c-2.22,-0 -4.192,0.465 -5.917,1.395c-1.725,0.93 -3.075,2.235 -4.05,3.915c-0.975,1.68 -1.463,3.6 -1.463,5.76c0,2.1 0.488,3.99 1.463,5.67c0.975,1.68 2.325,3 4.05,3.96c1.725,0.96 3.682,1.44 5.872,1.44c2.46,-0 4.62,-0.54 6.48,-1.62l0,-9.81Z" style="fill:#fff;fill-rule:nonzero;"/></g></svg>