<?xml version="1.0" encoding="UTF-8" standalone="no"?><!DOCTYPE svg PUBLIC "-//W3C//DTD SVG 1.1//EN" "http://www.w3.org/Graphics/SVG/1.1/DTD/svg11.dtd"><svg width="100%" height="100%" viewBox="0 0 4167 834" version="1.1" xmlns="http://www.w3.org/2000/svg" xmlns:xlink="http://www.w3.org/1999/xlink" xml:space="preserve" xmlns:serif="http://www.serif.com/" style="fill-rule:evenodd;clip-rule:evenodd;stroke-miterlimit:10;"><rect id="Logo-geomaap" serif:id="Logo geomaap" x="0" y="0" width="4166.67" height="833.333" style="fill:none;"/><clipPath id="_clip1"><rect x="0" y="0" width="4166.67" height="833.333"/></clipPath><g clip-path="url(#_clip1)"><g id="Layer-1" serif:id="Layer 1"></g><path d="M456.145,177.15l-281.081,486.855l562.161,-0l-281.08,-486.855l-281.081,486.855l562.161,-0l-281.08,-486.855Z" style="fill:#0891b2;fill-rule:nonzero;stroke:#0891b2;stroke-width:41.67px;"/><path d="M677.863,277.083l-223.385,386.922l446.784,0l-223.399,-386.922l-223.385,386.922l446.784,0l-223.399,-386.922Z" style="fill:#67e8f9;fill-rule:nonzero;stroke:#67e8f9;stroke-width:41.67px;"/><path d="M1774.31,618.386c-31.803,0 -60.485,-6.91 -86.046,-20.731c-25.561,-13.821 -45.623,-32.991 -60.187,-57.512c-14.564,-24.521 -21.846,-51.94 -21.846,-82.257c-0,-30.316 7.282,-57.735 21.846,-82.256c14.564,-24.521 34.626,-43.691 60.187,-57.512c25.561,-13.821 54.243,-20.732 86.046,-20.732c31.803,0 60.485,6.911 86.046,20.732c25.561,13.821 45.623,32.917 60.187,57.289c14.564,24.373 21.846,51.866 21.846,82.479c0,30.614 -7.282,58.107 -21.846,82.48c-14.564,24.372 -34.626,43.468 -60.187,57.289c-25.561,13.821 -54.243,20.731 -86.046,20.731Zm0,-50.825c20.806,0 39.531,-4.681 56.175,-14.043c16.644,-9.363 29.722,-22.441 39.233,-39.234c9.511,-16.793 14.267,-35.592 14.267,-56.398c0,-20.805 -4.756,-39.604 -14.267,-56.397c-9.511,-16.793 -22.589,-29.871 -39.233,-39.234c-16.644,-9.362 -35.369,-14.044 -56.175,-14.044c-20.806,0 -39.531,4.682 -56.175,14.044c-16.644,9.363 -29.722,22.441 -39.233,39.234c-9.511,16.793 -14.267,35.592 -14.267,56.397c0,20.806 4.756,39.605 14.267,56.398c9.511,16.793 22.589,29.871 39.233,39.234c16.644,9.362 35.369,14.043 56.175,14.043Z" style="fill:#fff;fill-rule:nonzero;"/><path d="M2290.58,613.928l-0.446,-206.867l-102.541,171.2l-25.859,0l-102.541,-168.525l-0,204.192l-55.284,0l0,-312.083l47.704,-0l123.942,206.866l121.713,-206.866l47.704,-0l0.446,312.083l-54.838,0Z" style="fill:#fff;fill-rule:nonzero;"/><path d="M2632.09,541.703l-156.041,0l-30.763,72.225l-59.741,0l140.437,-312.083l57.067,-0l140.883,312.083l-60.633,0l-31.209,-72.225Zm-19.17,-45.475l-58.85,-136.425l-58.405,136.425l117.255,0Z" style="fill:#fff;fill-rule:nonzero;"/><path d="M2974.05,541.703l-156.042,0l-30.763,72.225l-59.741,0l140.437,-312.083l57.067,-0l140.883,312.083l-60.633,0l-31.208,-72.225Zm-19.171,-45.475l-58.85,-136.425l-58.404,136.425l117.254,0Z" style="fill:#fff;fill-rule:nonzero;"/><path d="M3233.97,301.845c27.048,-0 50.602,4.458 70.665,13.375c20.062,8.916 35.444,21.697 46.144,38.341c10.7,16.645 16.05,36.41 16.05,59.296c-0,22.589 -5.35,42.28 -16.05,59.073c-10.7,16.793 -26.082,29.648 -46.144,38.565c-20.063,8.916 -43.617,13.375 -70.665,13.375l-70.441,-0l-0,90.058l-57.959,0l0,-312.083l128.4,-0Zm-2.675,172.983c25.264,0 44.435,-5.35 57.513,-16.05c13.078,-10.7 19.617,-26.007 19.617,-45.921c-0,-19.914 -6.539,-35.221 -19.617,-45.921c-13.078,-10.7 -32.249,-16.05 -57.513,-16.05l-67.766,0l-0,123.942l67.766,0Z" style="fill:#fff;fill-rule:nonzero;"/><path d="M3429.24,617.049c-10.105,-0 -18.725,-3.492 -25.858,-10.477c-7.133,-6.985 -10.7,-15.827 -10.7,-26.527c0,-10.997 3.492,-19.914 10.477,-26.75c6.985,-6.836 15.679,-10.254 26.081,-10.254c10.403,-0 19.097,3.418 26.082,10.254c6.984,6.836 10.477,15.753 10.477,26.75c-0,10.7 -3.567,19.542 -10.7,26.527c-7.134,6.985 -15.753,10.477 -25.859,10.477Z" style="fill:#fff;fill-rule:nonzero;"/><rect x="3525.54" y="301.845" width="57.958" height="312.083" style="fill:#fff;fill-rule:nonzero;"/><path d="M3813.55,618.386c-31.803,0 -60.485,-6.91 -86.046,-20.731c-25.561,-13.821 -45.624,-32.991 -60.188,-57.512c-14.564,-24.521 -21.845,-51.94 -21.845,-82.257c-0,-30.316 7.281,-57.735 21.845,-82.256c14.564,-24.521 34.627,-43.691 60.188,-57.512c25.561,-13.821 54.243,-20.732 86.046,-20.732c31.802,0 60.484,6.911 86.046,20.732c25.561,13.821 45.623,32.917 60.187,57.289c14.564,24.373 21.846,51.866 21.846,82.479c-0,30.614 -7.282,58.107 -21.846,82.48c-14.564,24.372 -34.626,43.468 -60.187,57.289c-25.562,13.821 -54.244,20.731 -86.046,20.731Zm-0,-50.825c20.805,0 39.53,-4.681 56.175,-14.043c16.644,-9.363 29.722,-22.441 39.233,-39.234c9.511,-16.793 14.267,-35.592 14.267,-56.398c-0,-20.805 -4.756,-39.604 -14.267,-56.397c-9.511,-16.793 -22.589,-29.871 -39.233,-39.234c-16.645,-9.362 -35.37,-14.044 -56.175,-14.044c-20.806,0 -39.531,4.682 -56.175,14.044c-16.645,9.363 -29.723,22.441 -39.234,39.234c-9.511,16.793 -14.266,35.592 -14.266,56.397c-0,20.806 4.755,39.605 14.266,56.398c9.511,16.793 22.589,29.871 39.234,39.234c16.644,9.362 35.369,14.043 56.175,14.043Z" style="fill:#fff;fill-rule:nonzero;"/><rect x="1342.06" y="304.233" width="198.287" height="26.429" style="fill:#fff;stroke:#fff;stroke-width:25px;"/><path d="M1546.46,566.911l0,26.55l-204.408,-0l-0,-159.825l180.046,-0l-0,25.866l-149.596,0l-0,107.409l173.958,-0Z" style="fill:#fff;fill-rule:nonzero;stroke:#fff;stroke-width:25px;"/><path d="M1206.28,448.283l54.838,0l-0,124.388c-16.05,12.78 -34.775,22.589 -56.175,29.425c-21.4,6.836 -43.395,10.254 -65.984,10.254c-31.802,-0 -60.484,-6.911 -86.046,-20.731c-25.561,-13.821 -45.623,-32.918 -60.187,-57.29c-14.564,-24.372 -21.846,-51.865 -21.846,-82.479c0,-30.614 7.282,-58.107 21.846,-82.479c14.564,-24.373 34.701,-43.469 60.41,-57.29c25.71,-13.821 54.615,-20.731 86.715,-20.731c26.156,-0 49.933,4.31 71.333,12.929c21.4,8.619 39.382,21.251 53.946,37.896l-36.558,35.666c-23.778,-23.777 -52.46,-35.666 -86.046,-35.666c-21.994,-0 -41.537,4.607 -58.627,13.821c-17.09,9.214 -30.465,22.143 -40.125,38.787c-9.66,16.645 -14.49,35.667 -14.49,57.067c0,20.805 4.83,39.53 14.49,56.175c9.66,16.644 23.035,29.722 40.125,39.233c17.09,9.511 36.484,14.267 58.181,14.267c24.372,-0 45.772,-5.35 64.2,-16.05l0,-97.192Z" style="fill:#fff;fill-rule:nonzero;"/></g></svg>