<?xml version="1.0" encoding="UTF-8" standalone="no"?><!DOCTYPE svg PUBLIC "-//W3C//DTD SVG 1.1//EN" "http://www.w3.org/Graphics/SVG/1.1/DTD/svg11.dtd"><svg width="100%" height="100%" viewBox="0 0 664 144" version="1.1" xmlns="http://www.w3.org/2000/svg" xmlns:xlink="http://www.w3.org/1999/xlink" xml:space="preserve" xmlns:serif="http://www.serif.com/" style="fill-rule:evenodd;clip-rule:evenodd;stroke-miterlimit:10;"><rect id="Logo-geomaap-web-2" serif:id="Logo geomaap web 2" x="0" y="0" width="663.869" height="144" style="fill:none;"/><clipPath id="_clip1"><rect x="0" y="0" width="663.869" height="144"/></clipPath><g clip-path="url(#_clip1)"><path d="M68.727,30.673l-47.719,82.654l95.438,-0l-47.719,-82.654l-47.719,82.654l95.438,-0l-47.719,-82.654Z" style="fill:#0891b2;fill-rule:nonzero;stroke:#0891b2;stroke-width:10px;"/><path d="M106.368,47.639l-37.924,65.688l75.851,-0l-37.927,-65.688l-37.924,65.688l75.851,-0l-37.927,-65.688Z" style="fill:#67e8f9;fill-rule:nonzero;stroke:#67e8f9;stroke-width:10px;"/><path d="M286.249,98.746c-4.993,-0 -9.497,-1.085 -13.51,-3.255c-4.013,-2.17 -7.163,-5.18 -9.45,-9.03c-2.287,-3.85 -3.43,-8.155 -3.43,-12.915c-0,-4.76 1.143,-9.065 3.43,-12.915c2.287,-3.85 5.437,-6.86 9.45,-9.03c4.013,-2.17 8.517,-3.255 13.51,-3.255c4.993,-0 9.497,1.085 13.51,3.255c4.013,2.17 7.163,5.168 9.45,8.995c2.287,3.826 3.43,8.143 3.43,12.95c-0,4.806 -1.143,9.123 -3.43,12.95c-2.287,3.826 -5.437,6.825 -9.45,8.995c-4.013,2.17 -8.517,3.255 -13.51,3.255Zm-0,-7.98c3.267,-0 6.207,-0.735 8.82,-2.205c2.613,-1.47 4.667,-3.524 6.16,-6.16c1.493,-2.637 2.24,-5.589 2.24,-8.855c-0,-3.267 -0.747,-6.219 -2.24,-8.855c-1.493,-2.637 -3.547,-4.69 -6.16,-6.16c-2.613,-1.47 -5.553,-2.205 -8.82,-2.205c-3.267,-0 -6.207,0.735 -8.82,2.205c-2.613,1.47 -4.667,3.523 -6.16,6.16c-1.493,2.636 -2.24,5.588 -2.24,8.855c-0,3.266 0.747,6.218 2.24,8.855c1.493,2.636 3.547,4.69 6.16,6.16c2.613,1.47 5.553,2.205 8.82,2.205Z" style="fill:#fff;fill-rule:nonzero;"/><path d="M367.309,98.046l-0.07,-32.48l-16.1,26.88l-4.06,-0l-16.1,-26.46l-0,32.06l-8.68,-0l-0,-49l7.49,-0l19.46,32.48l19.11,-32.48l7.49,-0l0.07,49l-8.61,-0Z" style="fill:#fff;fill-rule:nonzero;"/><path d="M420.929,86.706l-24.5,-0l-4.83,11.34l-9.38,-0l22.05,-49l8.96,-0l22.12,49l-9.52,-0l-4.9,-11.34Zm-3.01,-7.14l-9.24,-21.42l-9.17,21.42l18.41,-0Z" style="fill:#fff;fill-rule:nonzero;"/><path d="M474.619,86.706l-24.5,-0l-4.83,11.34l-9.38,-0l22.05,-49l8.96,-0l22.12,49l-9.52,-0l-4.9,-11.34Zm-3.01,-7.14l-9.24,-21.42l-9.17,21.42l18.41,-0Z" style="fill:#fff;fill-rule:nonzero;"/><path d="M515.429,49.046c4.247,-0 7.945,0.7 11.095,2.1c3.15,1.4 5.565,3.406 7.245,6.02c1.68,2.613 2.52,5.716 2.52,9.31c-0,3.546 -0.84,6.638 -2.52,9.275c-1.68,2.636 -4.095,4.655 -7.245,6.055c-3.15,1.4 -6.848,2.1 -11.095,2.1l-11.06,-0l-0,14.14l-9.1,-0l-0,-49l20.16,-0Zm-0.42,27.16c3.967,-0 6.977,-0.84 9.03,-2.52c2.053,-1.68 3.08,-4.084 3.08,-7.21c-0,-3.127 -1.027,-5.53 -3.08,-7.21c-2.053,-1.68 -5.063,-2.52 -9.03,-2.52l-10.64,-0l-0,19.46l10.64,-0Z" style="fill:#fff;fill-rule:nonzero;"/><path d="M546.089,98.536c-1.587,-0 -2.94,-0.549 -4.06,-1.645c-1.12,-1.097 -1.68,-2.485 -1.68,-4.165c-0,-1.727 0.548,-3.127 1.645,-4.2c1.097,-1.074 2.462,-1.61 4.095,-1.61c1.633,-0 2.998,0.536 4.095,1.61c1.097,1.073 1.645,2.473 1.645,4.2c-0,1.68 -0.56,3.068 -1.68,4.165c-1.12,1.096 -2.473,1.645 -4.06,1.645Z" style="fill:#fff;fill-rule:nonzero;"/><rect x="561.209" y="49.046" width="9.1" height="49" style="fill:#fff;fill-rule:nonzero;"/><path d="M606.429,98.746c-4.993,-0 -9.497,-1.085 -13.51,-3.255c-4.013,-2.17 -7.163,-5.18 -9.45,-9.03c-2.287,-3.85 -3.43,-8.155 -3.43,-12.915c-0,-4.76 1.143,-9.065 3.43,-12.915c2.287,-3.85 5.437,-6.86 9.45,-9.03c4.013,-2.17 8.517,-3.255 13.51,-3.255c4.993,-0 9.497,1.085 13.51,3.255c4.013,2.17 7.163,5.168 9.45,8.995c2.287,3.826 3.43,8.143 3.43,12.95c-0,4.806 -1.143,9.123 -3.43,12.95c-2.287,3.826 -5.437,6.825 -9.45,8.995c-4.013,2.17 -8.517,3.255 -13.51,3.255Zm-0,-7.98c3.267,-0 6.207,-0.735 8.82,-2.205c2.613,-1.47 4.667,-3.524 6.16,-6.16c1.493,-2.637 2.24,-5.589 2.24,-8.855c-0,-3.267 -0.747,-6.219 -2.24,-8.855c-1.493,-2.637 -3.547,-4.69 -6.16,-6.16c-2.613,-1.47 -5.553,-2.205 -8.82,-2.205c-3.267,-0 -6.207,0.735 -8.82,2.205c-2.613,1.47 -4.667,3.523 -6.16,6.16c-1.493,2.636 -2.24,5.588 -2.24,8.855c-0,3.266 0.747,6.218 2.24,8.855c1.493,2.636 3.547,4.69 6.16,6.16c2.613,1.47 5.553,2.205 8.82,2.205Z" style="fill:#fff;fill-rule:nonzero;"/><rect x="217.459" y="50.173" width="31.954" height="4.259" style="fill:#fff;stroke:#fff;stroke-width:4px;"/><path d="M250.399,90.504l0,4.278l-32.94,0l-0,-25.756l29.014,0l0,4.169l-24.107,-0l-0,17.309l28.033,-0Z" style="fill:#fff;fill-rule:nonzero;stroke:#fff;stroke-width:4px;"/><path d="M197.335,71.537l8.61,-0l0,19.53c-2.52,2.007 -5.46,3.547 -8.82,4.62c-3.36,1.073 -6.813,1.61 -10.36,1.61c-4.993,-0 -9.496,-1.085 -13.51,-3.255c-4.013,-2.17 -7.163,-5.168 -9.45,-8.995c-2.286,-3.827 -3.43,-8.143 -3.43,-12.95c0,-4.807 1.144,-9.123 3.43,-12.95c2.287,-3.827 5.449,-6.825 9.485,-8.995c4.037,-2.17 8.575,-3.255 13.615,-3.255c4.107,-0 7.84,0.677 11.2,2.03c3.36,1.353 6.184,3.337 8.47,5.95l-5.74,5.6c-3.733,-3.733 -8.236,-5.6 -13.51,-5.6c-3.453,-0 -6.521,0.723 -9.205,2.17c-2.683,1.447 -4.783,3.477 -6.3,6.09c-1.516,2.613 -2.275,5.6 -2.275,8.96c0,3.267 0.759,6.207 2.275,8.82c1.517,2.613 3.617,4.667 6.3,6.16c2.684,1.493 5.729,2.24 9.135,2.24c3.827,-0 7.187,-0.84 10.08,-2.52l0,-15.26Z" style="fill:#fff;fill-rule:nonzero;"/></g></svg>